<svg id="logo-footer-gsexpertise" xmlns="http://www.w3.org/2000/svg" xmlns:xlink="http://www.w3.org/1999/xlink" width="276.225" height="196.765" viewBox="0 0 276.225 196.765">
  <defs>
    <clipPath id="clip-path">
      <rect id="Rectangle_1712" data-name="Rectangle 1712" width="276.225" height="196.765" fill="none"/>
    </clipPath>
  </defs>
  <g id="Groupe_47" data-name="Groupe 47" clip-path="url(#clip-path)">
    <path id="Tracé_1295" data-name="Tracé 1295" d="M78.441,1v.506a11.907,11.907,0,0,1,2.407.246l110.33,22.782a11.742,11.742,0,0,1,9.1,9.628l5.5,28.881a12.815,12.815,0,0,0,10.331,10.512l46.993,7.981A11.344,11.344,0,0,1,270.5,86.2l27.483,38.74c2.96,4.172,3.153,10.081.493,15.054L273.419,186.84c-2.586,4.835-7.4,8.008-12.265,8.083-4.134.064-9.794.168-16.348.289-20.24.374-50.826.94-72.509.94-15.706,0-24.652-.293-26.589-.872-1.426-.427-7.394-6.078-27.725-30.582-13.971-16.839-30.658-37.661-42.843-52.864-6.007-7.5-11.194-13.968-14.58-18.123a14.818,14.818,0,0,1-3.608-10.879l7.278-67.624c.813-7.555,7.188-13.7,14.21-13.7Zm0,0C71.273,1,64.589,7.154,63.728,15.153L56.449,82.777A15.163,15.163,0,0,0,60.168,94.03c17.214,21.125,79.167,99.874,85.4,101.735,2.213.661,12.719.894,26.734.894,28.562,0,71.692-.965,88.865-1.23,5.132-.079,10.055-3.4,12.7-8.35l25.055-46.841c2.753-5.146,2.546-11.254-.527-15.586l-27.482-38.74a11.843,11.843,0,0,0-7.721-4.875L216.2,73.056a12.255,12.255,0,0,1-9.919-10.108l-5.5-28.88a12.28,12.28,0,0,0-9.5-10.03L80.951,1.256A12.378,12.378,0,0,0,78.441,1" transform="translate(-25.18 -0.447)" fill="#fff"/>
    <path id="Tracé_1296" data-name="Tracé 1296" d="M78.441,1v.506a11.907,11.907,0,0,1,2.407.246l110.33,22.782a11.742,11.742,0,0,1,9.1,9.628l5.5,28.881a12.815,12.815,0,0,0,10.331,10.512l46.993,7.981A11.344,11.344,0,0,1,270.5,86.2l27.483,38.74c2.96,4.172,3.153,10.081.493,15.054L273.419,186.84c-2.586,4.835-7.4,8.008-12.265,8.083-4.134.064-9.794.168-16.348.289-20.24.374-50.826.94-72.509.94-15.706,0-24.652-.293-26.589-.872-1.426-.427-7.394-6.078-27.725-30.582-13.971-16.839-30.658-37.661-42.843-52.864-6.007-7.5-11.194-13.968-14.58-18.123a14.818,14.818,0,0,1-3.608-10.879l7.278-67.624c.813-7.555,7.188-13.7,14.21-13.7V1m0,0C71.273,1,64.589,7.154,63.728,15.153L56.449,82.777A15.163,15.163,0,0,0,60.168,94.03c17.214,21.125,79.167,99.874,85.4,101.735,2.213.661,12.719.894,26.734.894,28.562,0,71.692-.965,88.865-1.23,5.132-.079,10.055-3.4,12.7-8.35l25.055-46.841c2.753-5.146,2.546-11.254-.527-15.586l-27.482-38.74a11.843,11.843,0,0,0-7.721-4.875L216.2,73.056a12.255,12.255,0,0,1-9.919-10.108l-5.5-28.88a12.28,12.28,0,0,0-9.5-10.03L80.951,1.256A12.378,12.378,0,0,0,78.441,1Z" transform="translate(-25.18 -0.447)" fill="none" stroke="#fff" stroke-width="1"/>
    <path id="Tracé_1297" data-name="Tracé 1297" d="M271.933,203.405c.1-2.844.209-5.783-1.245-8.547a8.254,8.254,0,0,0-7.082-4.693h-.024a7.829,7.829,0,0,0-5.958,3c-.149.172-.294.348-.435.52l-.02.027a11.032,11.032,0,0,1-1.667,1.745l-.121.1-.027.02a18.821,18.821,0,0,1-2.48,1.7,12.766,12.766,0,0,1-6.012,1.542h-.04c-4.532-.017-9.056-2.969-12.11-7.9-3.242-5.243-3.236-11.192-3.229-17.491v-6.3l7.268,1.265c-.111,2.413-.392,8.53-.3,10.709a12.893,12.893,0,0,0,.962,4.6c1.154,2.676,3.793,5.81,7.437,5.834h.023a7.79,7.79,0,0,0,6.11-3.178,13.651,13.651,0,0,1,10.612-5.473h.04a13.9,13.9,0,0,1,10.77,5.6,21.925,21.925,0,0,1,4.568,13.82l.024,2.1c-1.694.432-5.132,1.289-7.072,1.667,0-.044,0-.091,0-.138,0-.243,0-.483,0-.526" transform="translate(-103.396 -74.65)" fill="#f46f51"/>
    <path id="Tracé_1298" data-name="Tracé 1298" d="M308.209,173.515a4.517,4.517,0,0,1-2.043,2.871,4.682,4.682,0,0,1-2.641,1.025,3.9,3.9,0,0,1-3.058-1.975c-1.585-2.22-1.178-4.355,1.144-6.011a4.656,4.656,0,0,1,2.637-1.021,3.9,3.9,0,0,1,3.058,1.972,4.265,4.265,0,0,1,.9,3.14" transform="translate(-133.786 -75.221)" fill="#f46f51"/>
    <path id="Tracé_1299" data-name="Tracé 1299" d="M110.987,204.734l-4.2-4.151a18.031,18.031,0,0,1-5.553,3.18,18.844,18.844,0,0,1-6.468,1.132,25.377,25.377,0,0,1-10.7-2.21,17.945,17.945,0,0,1-7.681-6.549A18.734,18.734,0,0,1,73.523,185.6a19.353,19.353,0,0,1,2.669-10.3,17.4,17.4,0,0,1,7.465-6.684,24.981,24.981,0,0,1,11-2.318q7.277,0,10.834,2.938a9.32,9.32,0,0,1,3.558,7.519,9.672,9.672,0,0,1-.808,4.043l-.378-.162a9.837,9.837,0,0,0,.755-3.881,8.462,8.462,0,0,0-3.45-7.169A14.336,14.336,0,0,0,96.325,167a13.236,13.236,0,0,0-8.355,2.587,14.962,14.962,0,0,0-4.905,6.819A26.3,26.3,0,0,0,81.5,185.6a31.3,31.3,0,0,0,1.294,9.191,15.093,15.093,0,0,0,4.258,6.927,11.011,11.011,0,0,0,7.708,2.695,13.66,13.66,0,0,0,5.121-.97A8.608,8.608,0,0,0,103.6,200.8V187.107H94.654v-.431h16.333Z" transform="translate(-32.841 -74.282)" fill="#fff"/>
    <path id="Tracé_1300" data-name="Tracé 1300" d="M155.636,203.737a13.453,13.453,0,0,1-5.876-3.342,7.113,7.113,0,0,1-2.1-5.094,6.44,6.44,0,0,1,.97-3.557l.378.216a6.489,6.489,0,0,0-.916,3.342,6.594,6.594,0,0,0,1.994,4.744,13.146,13.146,0,0,0,5.579,3.181,27.3,27.3,0,0,0,8.221,1.132,20.385,20.385,0,0,0,8.57-1.725,5.736,5.736,0,0,0,3.773-5.5,5.109,5.109,0,0,0-1.725-3.908,13.575,13.575,0,0,0-4.232-2.587q-2.506-1-6.872-2.291-4.905-1.455-7.87-2.668a14.817,14.817,0,0,1-5.013-3.288,7.1,7.1,0,0,1-2.048-5.2,8.513,8.513,0,0,1,2.129-5.714,13.618,13.618,0,0,1,5.9-3.827,25.406,25.406,0,0,1,8.57-1.347,25.148,25.148,0,0,1,7.871,1.1,11.82,11.82,0,0,1,5.175,3.126,6.8,6.8,0,0,1,1.833,4.717,6.879,6.879,0,0,1-.808,3.4l-.324-.215a7.465,7.465,0,0,0,.7-3.181,6.439,6.439,0,0,0-1.725-4.447,10.97,10.97,0,0,0-4.824-2.938,22.584,22.584,0,0,0-7.089-1.024,16.931,16.931,0,0,0-8.3,1.778,5.513,5.513,0,0,0-3.181,5.014,4.705,4.705,0,0,0,1.644,3.638,12.343,12.343,0,0,0,4.069,2.372q2.427.889,6.685,2.129,4.959,1.4,8.032,2.614a14.97,14.97,0,0,1,5.228,3.4,7.542,7.542,0,0,1,2.157,5.526,9.046,9.046,0,0,1-2.426,6.388,14.722,14.722,0,0,1-6.5,3.908,29.887,29.887,0,0,1-9.082,1.294,29.177,29.177,0,0,1-8.57-1.159" transform="translate(-65.955 -74.282)" fill="#fff"/>
    <path id="Tracé_1301" data-name="Tracé 1301" d="M7.547,250.307v18.651H28.839v.431H0V231.657H28.3v.431H7.547v17.788H24.9v.431Z" transform="translate(0 -103.475)" fill="#fff"/>
    <path id="Tracé_1302" data-name="Tracé 1302" d="M72.986,260.941l11,16.063H75.9L67.7,264.983,57.3,277h-.7l10.835-12.452L56.6,248.7h7.978l8.086,11.805L82.689,248.7h.7Z" transform="translate(-25.281 -111.09)" fill="#fff"/>
    <path id="Tracé_1303" data-name="Tracé 1303" d="M136.176,249.569a10.767,10.767,0,0,1,4.07,4.662,16.5,16.5,0,0,1,1.428,7.115,20.861,20.861,0,0,1-1.482,8.086,12.391,12.391,0,0,1-4.474,5.606,12.519,12.519,0,0,1-7.25,2.048,9.754,9.754,0,0,1-6.738-2.21,10.965,10.965,0,0,1-3.342-5.121v19.028h-6.846V249.111l6.9-1.186V255.9a15.262,15.262,0,0,1,5.093-6.037,11.706,11.706,0,0,1,6.5-1.941,11.387,11.387,0,0,1,6.145,1.644m-4.15,22.8q2.048-3.153,2.048-10.43a38.6,38.6,0,0,0-.432-6.145,9.528,9.528,0,0,0-1.886-4.474,5.178,5.178,0,0,0-4.313-1.833,7.922,7.922,0,0,0-5.013,1.833,14.086,14.086,0,0,0-3.935,5.5v10.242a9.154,9.154,0,0,0,.97,4.151,8.05,8.05,0,0,0,2.722,3.126,6.991,6.991,0,0,0,4.016,1.186,6.549,6.549,0,0,0,5.822-3.153" transform="translate(-49.823 -110.741)" fill="#fff"/>
    <path id="Tracé_1304" data-name="Tracé 1304" d="M199.315,265.605a19.36,19.36,0,0,1-5.983,8.3,14.52,14.52,0,0,1-9.326,3.181,15.512,15.512,0,0,1-7.762-1.86,12.548,12.548,0,0,1-5.013-5.094,14.985,14.985,0,0,1-1.725-7.169,14.13,14.13,0,0,1,8.193-13.233,19.234,19.234,0,0,1,8.409-1.806,14.714,14.714,0,0,1,6.253,1.186,8.443,8.443,0,0,1,3.747,3.153,7.926,7.926,0,0,1,1.213,4.232,7.327,7.327,0,0,1-.486,2.7H177.052a19.873,19.873,0,0,0-.107,2.425q0,5.661,2.883,9.029a9.665,9.665,0,0,0,7.736,3.369,10.692,10.692,0,0,0,6.765-2.291,15.2,15.2,0,0,0,4.609-6.28ZM180.5,251.456a12.373,12.373,0,0,0-3.4,7.3h19.406a6.67,6.67,0,0,0,.377-2.211,7.274,7.274,0,0,0-1.132-3.989,7.784,7.784,0,0,0-3.207-2.8,10.662,10.662,0,0,0-4.771-1.024,9.892,9.892,0,0,0-7.277,2.722" transform="translate(-75.714 -110.741)" fill="#fff"/>
    <path id="Tracé_1305" data-name="Tracé 1305" d="M250.047,249.758A6.585,6.585,0,0,1,251.8,254.5a8.793,8.793,0,0,1-1.4,4.8l-.377-.216a8.329,8.329,0,0,0,1.347-4.582,5.724,5.724,0,0,0-6.2-6.145,8.63,8.63,0,0,0-6.684,3.4,20.775,20.775,0,0,0-4.2,9v15.9h-7.008v-27.6l6.576-1.132.324,11.374a19.656,19.656,0,0,1,4.447-8.3,8.893,8.893,0,0,1,6.549-3.073,6.431,6.431,0,0,1,4.878,1.833" transform="translate(-101.517 -110.741)" fill="#fff"/>
    <path id="Tracé_1306" data-name="Tracé 1306" d="M288.826,267.95v.431a11.809,11.809,0,0,1-6.576,2.049,6.452,6.452,0,0,1-4.689-1.672q-1.726-1.67-1.725-5.228v-21.4h-4.043V241.7h4.043l6.792-8.678h.216V241.7h5.444v.431h-5.444V264.77a5.778,5.778,0,0,0,.673,2.938,2.485,2.485,0,0,0,2.345,1.159,5.69,5.69,0,0,0,2.965-.917" transform="translate(-121.402 -104.084)" fill="#fff"/>
    <path id="Tracé_1307" data-name="Tracé 1307" d="M312.7,276.656h-7.008V249.111l7.008-1.186Z" transform="translate(-136.544 -110.741)" fill="#fff"/>
    <path id="Tracé_1308" data-name="Tracé 1308" d="M327.6,275.093q-3.693-1.994-3.692-5.391a4.908,4.908,0,0,1,.755-2.7l.377.216a4.451,4.451,0,0,0-.7,2.479,4.916,4.916,0,0,0,1.59,3.612,10.572,10.572,0,0,0,4.393,2.426,21.8,21.8,0,0,0,6.415.862q4.9,0,7.385-1.32a4.027,4.027,0,0,0,2.479-3.639,3.422,3.422,0,0,0-1.267-2.668,10.007,10.007,0,0,0-3.208-1.806q-1.941-.7-5.175-1.617-4.1-1.185-6.522-2.156a12.7,12.7,0,0,1-4.178-2.668,5.716,5.716,0,0,1-1.752-4.286,6.327,6.327,0,0,1,2.129-4.932,12.579,12.579,0,0,1,5.31-2.749,25.365,25.365,0,0,1,6.468-.836,16.586,16.586,0,0,1,8.274,1.779q3.1,1.779,3.1,4.744a4.414,4.414,0,0,1-.593,2.426l-.432-.216a3.667,3.667,0,0,0,.593-2.21,4.915,4.915,0,0,0-2.911-4.42,16.109,16.109,0,0,0-7.816-1.617,13.756,13.756,0,0,0-6.6,1.347,4.016,4.016,0,0,0-2.452,3.558,2.863,2.863,0,0,0,1.213,2.345,10.4,10.4,0,0,0,2.991,1.563q1.78.62,5.013,1.482a62.382,62.382,0,0,1,6.711,2.075,13.478,13.478,0,0,1,4.393,2.722,5.805,5.805,0,0,1,1.833,4.421,6.964,6.964,0,0,1-1.914,4.878,12.182,12.182,0,0,1-5.2,3.18,23.109,23.109,0,0,1-7.385,1.1,20.2,20.2,0,0,1-9.622-1.994" transform="translate(-144.681 -110.741)" fill="#fff"/>
    <path id="Tracé_1309" data-name="Tracé 1309" d="M407.491,265.605a19.361,19.361,0,0,1-5.984,8.3,14.518,14.518,0,0,1-9.326,3.181,15.512,15.512,0,0,1-7.762-1.86,12.551,12.551,0,0,1-5.013-5.094,14.985,14.985,0,0,1-1.725-7.169,14.13,14.13,0,0,1,8.194-13.233,19.231,19.231,0,0,1,8.409-1.806,14.712,14.712,0,0,1,6.252,1.186,8.44,8.44,0,0,1,3.747,3.153A7.926,7.926,0,0,1,405.5,256.5a7.326,7.326,0,0,1-.486,2.7H385.228a19.866,19.866,0,0,0-.107,2.425q0,5.661,2.883,9.029a9.666,9.666,0,0,0,7.736,3.369,10.69,10.69,0,0,0,6.764-2.291,15.2,15.2,0,0,0,4.609-6.28Zm-18.813-14.15a12.37,12.37,0,0,0-3.4,7.3h19.405a6.67,6.67,0,0,0,.378-2.211,7.278,7.278,0,0,0-1.132-3.989,7.789,7.789,0,0,0-3.208-2.8,10.662,10.662,0,0,0-4.771-1.024,9.89,9.89,0,0,0-7.276,2.722" transform="translate(-168.7 -110.741)" fill="#fff"/>
  </g>
</svg>
