<svg xmlns="http://www.w3.org/2000/svg" width="162.692" height="74.804" viewBox="0 0 162.692 74.804">
  <g id="logo-menu-gsexpertise" transform="translate(-8643.048 -3826.628)">
    <path id="Tracé_34" data-name="Tracé 34" d="M9215.906,3857.708l2.84-25.367a5.682,5.682,0,0,1,6.821-4.926l40.171,8.49a5.68,5.68,0,0,1,4.365,4.295l2.283,10.011a5.68,5.68,0,0,0,4.58,4.337l16.165,2.767a5.677,5.677,0,0,1,3.745,2.415l9.578,14.145a5.683,5.683,0,0,1,.311,5.855l-9.511,17.866a5.682,5.682,0,0,1-4.991,3.011l-40.962.176a5.683,5.683,0,0,1-4.442-2.109l-29.725-36.76A5.673,5.673,0,0,1,9215.906,3857.708Z" transform="translate(-502.417)" fill="none" stroke="#fff" stroke-width="1.3"/>
    <path id="Tracé_35" data-name="Tracé 35" d="M8826.445,3982.583q-4.617,0-9.238,0c-.213,0-.494-.066-.372.357h5.386v.516c0,2.344-.036,4.688.022,7.031a1.735,1.735,0,0,1-.86,1.566,7.082,7.082,0,0,1-2.98,1.223,8.274,8.274,0,0,1-3.348-.076,8.614,8.614,0,0,1-.994-.31A6.306,6.306,0,0,1,8811.5,3991a7.859,7.859,0,0,1-1.643-2.918,27.588,27.588,0,0,1-.764-3.129c-.168-1.021-.181-2.068-.262-3.1l.033-.009c0-.006,0-.012,0-.018v-.254c0-.076,0-.15.008-.225,0-.041-.007-.083-.008-.125a2.938,2.938,0,0,1,.044-.657,5.351,5.351,0,0,1,.1-.7,20.186,20.186,0,0,1,.814-3.351,8.054,8.054,0,0,1,5.468-5.435,9.4,9.4,0,0,1,3.675-.288,9.3,9.3,0,0,1,3.191.87,5.194,5.194,0,0,1,2.92,3.416,7.136,7.136,0,0,1-.193,4.008c.121-.06.318-.093.351-.184a6.124,6.124,0,0,0-5.021-8.346,18.125,18.125,0,0,0-3.506-.36,14.637,14.637,0,0,0-7.481,1.886,10.279,10.279,0,0,0-3.85,3.934c-.043.079-.087.157-.135.233a.469.469,0,0,1-.093.077c-.09.225-.189.445-.3.661a.281.281,0,0,1-.023.094,11.1,11.1,0,0,0-.885,3.93,13.551,13.551,0,0,0,.343,4.243,10.487,10.487,0,0,0,5.379,6.86,13.224,13.224,0,0,0,4.819,1.512c.609.074,1.22.138,1.834.164a13.522,13.522,0,0,0,1.814-.065c.268-.025.549-.036.818-.083s.545-.117.814-.188a12.253,12.253,0,0,0,1.494-.5,12.007,12.007,0,0,0,2.7-1.535q.114-.086.226-.174l2.595,2.464v-11.1C8826.678,3982.6,8826.563,3982.583,8826.445,3982.583Z" transform="translate(-141.091 -125.339)" fill="#fff"/>
    <path id="Tracé_36" data-name="Tracé 36" d="M8966.672,4206.679a8.879,8.879,0,0,0-1.46-4.854,6.078,6.078,0,0,0-4.188-2.662,7.811,7.811,0,0,0-6.316,1.6,6.559,6.559,0,0,0-.952,1.132c-.3.425-.618.831-.931,1.246l-.312.414v-4.537l-4.271.724v24.193h4.3V4212.9c.177.34.282.565.408.778a5.939,5.939,0,0,0,2.518,2.523,7.5,7.5,0,0,0,4,.623,7.242,7.242,0,0,0,4.791-2.236c.269-.281.5-.6.776-.94.1-.167.2-.33.3-.487a.22.22,0,0,0-.014-.018,9.56,9.56,0,0,0,1.173-3.561A18.881,18.881,0,0,0,8966.672,4206.679Zm-4.768,2.336c0,.052,0,.1,0,.154-.01.22-.045.442-.036.661a2.968,2.968,0,0,1-.052.5,9,9,0,0,1-.922,3.264,3.966,3.966,0,0,1-3.557,2.21,4.274,4.274,0,0,1-3.192-1.229,4.6,4.6,0,0,1-1.5-3.1c-.094-2.226-.116-4.457-.082-6.685a3.362,3.362,0,0,1,.6-1.433,6.261,6.261,0,0,1,1.83-2.181l.008.009c.006,0,.01-.008.016-.011a2.659,2.659,0,0,1,.328-.246,4.087,4.087,0,0,1,4.727-.214,3.98,3.98,0,0,1,1.447,2.428,22.211,22.211,0,0,1,.384,3.223c.031.448.032.9.027,1.347,0,.244-.008.487-.011.73C8961.911,4208.637,8961.909,4208.826,8961.9,4209.016Z" transform="translate(-267.682 -326.04)" fill="#fff"/>
    <path id="Tracé_37" data-name="Tracé 37" d="M8643.048,4177.748V4154.7h17.187c.076.334.076.34-.295.341q-2.525,0-5.053,0h-7.234v10.74h10.459c.084.375.084.381-.287.381q-3.836,0-7.672,0h-2.41v11.2h12.871c.111.263.08.4-.217.382-.107-.006-.214,0-.321,0h-17.027Z" transform="translate(0 -287.169)" fill="#fff"/>
    <path id="Tracé_38" data-name="Tracé 38" d="M8803.83,4210.588c-.549.63-1.078,1.231-1.6,1.84-.885,1.032-1.764,2.071-2.65,3.1-.631.734-1.26,1.473-1.919,2.182-.116.125-.375.118-.567.171l-.076-.119c2.179-2.5,4.357-5.008,6.58-7.564l-6.645-9.729c1.7,0,3.273,0,4.848.009a.466.466,0,0,1,.3.2q2.159,3.132,4.3,6.273c.135.2.275.391.437.62a1.985,1.985,0,0,0,.279-.23c.757-.9,1.509-1.808,2.265-2.709q.773-.92,1.558-1.83c.61-.712,1.217-1.43,1.849-2.123a1.712,1.712,0,0,1,.543-.269l.119.161-6.311,7.434,6.723,9.833h-2.492c-.719,0-1.439-.017-2.158.008a.716.716,0,0,1-.682-.353q-1.926-2.853-3.86-5.7C8804.4,4211.389,8804.109,4210.988,8803.83,4210.588Z" transform="translate(-134.987 -327.264)" fill="#fff"/>
    <path id="Tracé_39" data-name="Tracé 39" d="M9026.211,3978.016a1.8,1.8,0,0,1,0-.363,8.387,8.387,0,0,0,.343-1.708,3.85,3.85,0,0,0-.87-2.454,7.258,7.258,0,0,0-4.434-2.355,15.132,15.132,0,0,0-4.429-.207,9.314,9.314,0,0,0-3.6,1.041,3.356,3.356,0,0,0-1.882,2.753,2.661,2.661,0,0,0,.722,2.071,8.316,8.316,0,0,0,3.9,2.149c2.354.737,4.718,1.45,7.063,2.213a9.322,9.322,0,0,1,4.014,2.43,4.293,4.293,0,0,1,1.2,2.886,6.076,6.076,0,0,1-.556,3.127,6.721,6.721,0,0,1-2.632,2.657,12.037,12.037,0,0,1-5.114,1.569,29.632,29.632,0,0,1-3.867.17,13.5,13.5,0,0,1-5.944-1.455,5.029,5.029,0,0,1-2.881-3.495,4.115,4.115,0,0,1,.385-2.909c.164-.279.277-.184.444-.061a3.948,3.948,0,0,0-.041,4.021,5.326,5.326,0,0,0,2.849,2.333,15.545,15.545,0,0,0,3.573.991,28.7,28.7,0,0,0,4.369.035,9.158,9.158,0,0,0,3.657-1.021,3.41,3.41,0,0,0,2.064-2.914,3.274,3.274,0,0,0-1.414-2.93,14.437,14.437,0,0,0-4.77-2.135c-1.115-.343-2.236-.669-3.339-1.048-1.215-.418-2.443-.82-3.61-1.352-1.617-.737-3.064-1.72-3.583-3.572a5.072,5.072,0,0,1,.86-4.576,8.481,8.481,0,0,1,5.182-3.035,17.912,17.912,0,0,1,2.906-.372,18.674,18.674,0,0,1,2.766,0,10.149,10.149,0,0,1,5.406,1.761,4.164,4.164,0,0,1,1.915,3.615C9026.816,3977.061,9026.746,3977.515,9026.211,3978.016Z" transform="translate(-319.347 -125.564)" fill="#fff"/>
    <path id="Tracé_40" data-name="Tracé 40" d="M9530.677,4211l.263.134c-.109.437-.228.849-.312,1.267a2.485,2.485,0,0,0,.644,2.148,5.711,5.711,0,0,0,3.319,1.876,22.218,22.218,0,0,0,3.043.377,10.147,10.147,0,0,0,4.43-.542,2.89,2.89,0,0,0,1.894-1.8,2.215,2.215,0,0,0-.931-2.35,14.493,14.493,0,0,0-4.014-1.646c-1.885-.627-3.784-1.225-5.631-1.955a4.5,4.5,0,0,1-2.332-1.993,4.141,4.141,0,0,1,1.279-5.323,8.778,8.778,0,0,1,4.162-1.556,27.954,27.954,0,0,1,3.912-.176,7.724,7.724,0,0,1,4.313,1.367,3.124,3.124,0,0,1,.955,4.122l-.334-.139c1.023-2.039-.206-3.53-1.848-4.261a11.153,11.153,0,0,0-5.248-.732,6.481,6.481,0,0,0-3.477,1.093,1.928,1.928,0,0,0-.588,2.884,4.516,4.516,0,0,0,1.856,1.137c2.057.68,4.157,1.224,6.226,1.872a8.84,8.84,0,0,1,4.041,2.274,3.485,3.485,0,0,1,.891,1.92,4.243,4.243,0,0,1-.838,3.3,6.089,6.089,0,0,1-2.612,1.951,12.982,12.982,0,0,1-4.1.944,14.279,14.279,0,0,1-6.317-.767,4.825,4.825,0,0,1-2.554-1.852A3.424,3.424,0,0,1,9530.677,4211Z" transform="translate(-778.127 -326.415)" fill="#fff"/>
    <path id="Tracé_41" data-name="Tracé 41" d="M9125.55,4210.137a12.877,12.877,0,0,1-1.945,3.421,10.338,10.338,0,0,1-2.989,2.528,7.384,7.384,0,0,1-2.654.923,12.785,12.785,0,0,1-2.075.176,8.674,8.674,0,0,1-6.53-2.794,7.435,7.435,0,0,1-1.822-3.714,14.465,14.465,0,0,1-.186-3.127,7.97,7.97,0,0,1,1.732-4.557,9.013,9.013,0,0,1,5.957-3.422,18.258,18.258,0,0,1,3.679-.178,6.173,6.173,0,0,1,4.292,1.841,4.823,4.823,0,0,1,1.126,4.781c-.073.284-.295.246-.508.246q-5.492,0-10.982,0c-.722,0-.71,0-.726.73a10.358,10.358,0,0,0,.733,4.518,5.777,5.777,0,0,0,4.334,3.568,6.528,6.528,0,0,0,4.2-.5,6.891,6.891,0,0,0,2.364-1.849,10.83,10.83,0,0,0,1.546-2.471c.051-.117.223-.18.339-.269Zm-1.79-4.263a5.066,5.066,0,0,0,.2-.884,4.441,4.441,0,0,0-2.569-4.417,6.557,6.557,0,0,0-4-.579,5.7,5.7,0,0,0-4.193,2.675,7.439,7.439,0,0,0-1.146,3.205Z" transform="translate(-407.216 -326.343)" fill="#fff"/>
    <path id="Tracé_42" data-name="Tracé 42" d="M9695.959,4210.185c-.465.864-.869,1.771-1.41,2.586a10.072,10.072,0,0,1-3.105,3.057,9.223,9.223,0,0,1-3.959,1.336,10.609,10.609,0,0,1-4.02-.38,7.692,7.692,0,0,1-4.637-3.566,9.288,9.288,0,0,1-1.141-5.809,8.16,8.16,0,0,1,2.943-5.662,8.933,8.933,0,0,1,4.777-2.143,22.051,22.051,0,0,1,3.635-.172,6.188,6.188,0,0,1,4.263,1.8,4.866,4.866,0,0,1,1.175,4.812c-.068.28-.281.259-.5.259q-3.768,0-7.535,0c-1.24,0-2.48.013-3.721-.007-.367-.005-.47.114-.473.475a11.656,11.656,0,0,0,.553,4.334,5.816,5.816,0,0,0,4.665,4.023,6.516,6.516,0,0,0,5.554-1.51,9.4,9.4,0,0,0,2.376-3.251C9695.5,4210.158,9695.572,4209.962,9695.959,4210.185Zm-1.895-4.273a4.244,4.244,0,0,0-1.588-4.841,6.288,6.288,0,0,0-4.765-1.031,5.666,5.666,0,0,0-4.107,2.563,8,8,0,0,0-1.228,3.309Z" transform="translate(-907.422 -326.383)" fill="#fff"/>
    <path id="Tracé_43" data-name="Tracé 43" d="M9398.234,4179.057c-.122.152-.213.363-.371.449a8.149,8.149,0,0,1-2.964.99,4.888,4.888,0,0,1-2.852-.417,3.1,3.1,0,0,1-1.78-2.842c-.07-4.451-.076-8.9-.107-13.355,0-.181,0-.362,0-.578h-2.32c-.115-.259-.1-.392.205-.388.628.008,1.256.013,1.884-.006a.624.624,0,0,0,.434-.168c1.022-1.3,2.026-2.614,3.038-3.923.258-.334.521-.664.795-.986a1.835,1.835,0,0,1,.354-.233v5.318h2.415a3.885,3.885,0,0,1,.641.011c.113.019.209.141.312.216l-.075.131h-3.27v.516c0,4.519-.011,9.039.009,13.558a2.01,2.01,0,0,0,.939,1.972,2.316,2.316,0,0,0,2.054-.125c.177-.084.355-.164.533-.246Z" transform="translate(-653.191 -289.711)" fill="#fff"/>
    <path id="Tracé_44" data-name="Tracé 44" d="M9269.713,4216.528h-4.383v-16.884l4.092-.708c.072,2.176.143,4.285.213,6.4.363-.793.7-1.586,1.088-2.355a8.031,8.031,0,0,1,3.045-3.386,3.826,3.826,0,0,1,2.095-.6,8.122,8.122,0,0,1,1.849.152,3.446,3.446,0,0,1,2.585,3.068,5.531,5.531,0,0,1-.785,3.771c-.075-.035-.127-.057-.178-.083s-.1-.053-.173-.093a5.416,5.416,0,0,0,.852-3.012,3.426,3.426,0,0,0-3.189-3.456,5.155,5.155,0,0,0-4.692,2.177,11.536,11.536,0,0,0-2.338,5.052,2.538,2.538,0,0,0-.075.532q-.007,4.435,0,8.87Z" transform="translate(-545.797 -325.967)" fill="#fff"/>
    <path id="Tracé_45" data-name="Tracé 45" d="M9480.746,4199.78l4.265-.7v17.554h-4.265Z" transform="translate(-734.736 -326.091)" fill="#fff"/>
    <path id="Tracé_46" data-name="Tracé 46" d="M9472.326,3986.923a1.924,1.924,0,0,1-1.106-.525,4.125,4.125,0,0,1-.976-1.349,2.251,2.251,0,0,1,.984-2.883,4.557,4.557,0,0,1,1.3-.626,1.645,1.645,0,0,1,1.812.6,5.275,5.275,0,0,1,.846,1.332,2.067,2.067,0,0,1-.577,2.435A2.954,2.954,0,0,1,9472.326,3986.923Z" transform="translate(-725.341 -135.216)" fill="#f16f51"/>
    <path id="Tracé_47" data-name="Tracé 47" d="M9284.346,3978.031c.727.115,1.395.216,2.061.327.4.067.807.143,1.21.214.2.037.407.072.612.1.186.03.371.038.559.068.109.017-.174,3.99-.188,4.373a12.723,12.723,0,0,0,.3,4.243,6.466,6.466,0,0,0,.225.615,5.728,5.728,0,0,0,3.4,3.473,4.059,4.059,0,0,0,4.2-1.038c.623-.559,1.137-1.236,1.746-1.812a7.66,7.66,0,0,1,5.25-2.188,7.991,7.991,0,0,1,6.307,2.868,11.773,11.773,0,0,1,2.973,6.386,18.169,18.169,0,0,1,.146,1.955q.015.491.023.983c0,.163.016.328.013.491,0,.06.011.353,0,.4-.145.038-.289.061-.434.1l-.524.136q-.527.135-1.056.266c-.732.183-1.5.311-2.219.554a15.8,15.8,0,0,0-.262-4.356,5.33,5.33,0,0,0-4.324-4.127,3.843,3.843,0,0,0-3.148.923,16.894,16.894,0,0,0-1.547,1.6,9.047,9.047,0,0,1-2.705,1.984,7.468,7.468,0,0,1-4.091.686,7.271,7.271,0,0,1-3.729-1.568,11.627,11.627,0,0,1-4.4-7.238,26.007,26.007,0,0,1-.383-3.982C9284.3,3982.355,9284.346,3980.242,9284.346,3978.031Z" transform="translate(-562.461 -132.213)" fill="#f16f51"/>
  </g>
</svg>
